HIERARCHY
ROOT Hips
{
	OFFSET -3.958830 18.904000 13.208200
	CHANNELS 6 Xposition Yposition Zposition Zrotation Yrotation Xrotation 
	JOINT LHipJoint
	{
		OFFSET 0.000000 0.000000 0.000000
		CHANNELS 3 Zrotation Yrotation Xrotation
		JOINT LeftUpLeg
		{
			OFFSET 1.800000 -1.400000 0.085000
			CHANNELS 3 Zrotation Yrotation Xrotation
			JOINT LeftLeg
			{
				OFFSET 2.215000 -6.000000 0.000000
				CHANNELS 3 Zrotation Yrotation Xrotation
				JOINT LeftFoot
				{
					OFFSET 2.500000 -6.900000 0.000000
					CHANNELS 3 Zrotation Yrotation Xrotation
					JOINT LeftToeBase
					{
						OFFSET 0.200000 -0.500000 1.950000
						CHANNELS 3 Zrotation Yrotation Xrotation
						End Site
						{
							OFFSET 0.000000 0.000000 0.000000
						}
					}
				}
			}
		}
	}
	JOINT RHipJoint
	{
		OFFSET 0.000000 0.000000 0.000000
		CHANNELS 3 Zrotation Yrotation Xrotation
		JOINT RightUpLeg
		{
			OFFSET -1.800000 -1.400000 0.085000
			CHANNELS 3 Zrotation Yrotation Xrotation
			JOINT RightLeg
			{
				OFFSET -2.215000 -6.000000 0.000000
				CHANNELS 3 Zrotation Yrotation Xrotation
				JOINT RightFoot
				{
					OFFSET -2.500000 -6.900000 0.000000
					CHANNELS 3 Zrotation Yrotation Xrotation
					JOINT RightToeBase
					{
						OFFSET -0.200000 -0.500000 1.950000
						CHANNELS 3 Zrotation Yrotation Xrotation
						End Site
						{
							OFFSET 0.000000 0.000000 0.000000
						}
					}
				}
			}
		}
	}
	JOINT LowerBack
	{
		OFFSET 0.000000 0.000000 0.000000
		CHANNELS 3 Zrotation Yrotation Xrotation
		JOINT Spine
		{
			OFFSET -0.087000 1.940000 -0.288900
			CHANNELS 3 Zrotation Yrotation Xrotation
			JOINT Spine1
			{
				OFFSET 0.000000 1.950000 0.060000
				CHANNELS 3 Zrotation Yrotation Xrotation
				JOINT Neck
				{
					OFFSET 0.000000 0.000000 0.000000
					CHANNELS 3 Zrotation Yrotation Xrotation
					JOINT Neck1
					{
						OFFSET 0.000000 1.600000 0.340000
						CHANNELS 3 Zrotation Yrotation Xrotation
						JOINT Head
						{
							OFFSET 0.000000 1.667000 -0.240000
							CHANNELS 3 Zrotation Yrotation Xrotation
							End Site
							{
								OFFSET 0.000000 0.000000 0.000000
							}
						}
					}
				}
				JOINT LeftShoulder
				{
					OFFSET 0.000000 0.000000 0.000000
					CHANNELS 3 Zrotation Yrotation Xrotation
					JOINT LeftArm
					{
						OFFSET 2.700000 1.550000 -0.730000
						CHANNELS 3 Zrotation Yrotation Xrotation
						JOINT LeftForeArm
						{
							OFFSET 5.450000 0.000000 0.000000
							CHANNELS 3 Zrotation Yrotation Xrotation
							JOINT LeftHand
							{
								OFFSET 3.450000 0.000000 0.000000
								CHANNELS 3 Zrotation Yrotation Xrotation
								JOINT LeftHandIndex1
								{
									OFFSET 0.750000 0.000000 0.000000
									CHANNELS 3 Zrotation Yrotation Xrotation
									End Site
									{
										OFFSET 0.000000 0.000000 0.000000
									}
								}
							}
						}
					}
				}
				JOINT RightShoulder
				{
					OFFSET 0.000000 0.000000 0.000000
					CHANNELS 3 Zrotation Yrotation Xrotation
					JOINT RightArm
					{
						OFFSET -2.700000 1.550000 -0.730000
						CHANNELS 3 Zrotation Yrotation Xrotation
						JOINT RightForeArm
						{
							OFFSET -5.450000 0.000000 0.000000
							CHANNELS 3 Zrotation Yrotation Xrotation
							JOINT RightHand
							{
								OFFSET -3.450000 0.000000 0.000000
								CHANNELS 3 Zrotation Yrotation Xrotation
								JOINT RightHandIndex1
								{
									OFFSET -0.750000 0.000000 0.000000
									CHANNELS 3 Zrotation Yrotation Xrotation
									End Site
									{
										OFFSET 0.000000 0.000000 0.000000
									}
								}
							}
						}
					}
				}
			}
		}
	}
}
MOTION
Frames: 13
Frame Time: 0.016667
-1.147420 16.876650 -4.370270 -177.580875 46.993916 178.784736 -15.235945 13.266961 3.294761 16.313319 -3.484397 -8.329247 -16.733724 11.042916 21.232953 0.374888 6.609995 2.101456 0.185190 -0.091390 0.217580 18.083230 -10.770941 2.855186 -0.400569 1.826247 -23.992126 0.011123 -2.614992 12.171302 0.064809 -1.650988 3.674929 -0.084260 -0.149540 0.013130 -2.667076 -1.559322 -7.559235 -0.473339 -4.532185 15.930770 1.247619 -3.252451 -1.375439 3.895111 4.026803 -6.031034 11.298826 -17.626383 76.853301 4.458890 -18.510820 11.807080 -21.980142 14.815194 -4.157987 -61.382296 8.478978 -15.350483 -16.153817 -20.580157 0.000650 -3.559369 2.704205 0.384910 -0.216940 0.128570 0.007190 18.239364 -15.644670 1.276059 53.898611 -17.807274 -15.971647 61.288803 37.426511 14.019871 2.491208 -1.632787 -0.015330 0.017340 -0.023410 -0.104810 
-1.139360 16.873310 -4.366630 -177.405000 49.014740 178.346517 -15.251826 13.298375 3.312417 16.447373 -3.402432 -7.678564 -17.153793 11.387283 21.577551 0.427219 6.759806 2.059944 0.193830 -0.073190 0.213090 18.071862 -10.724886 2.855478 0.005597 1.939010 -23.556122 0.121372 -2.645507 12.566040 0.055199 -1.674972 3.673736 -0.078420 -0.149890 0.004720 -2.619661 -1.690559 -7.570588 -0.466328 -4.677767 15.795280 1.822137 -3.393362 -1.297668 3.611184 3.616149 -6.114375 10.143677 -16.661027 78.146800 4.435830 -18.405960 11.983650 -22.215534 14.532854 -3.888833 -61.001142 8.942183 -15.329169 -16.633845 -20.736371 0.099086 -3.539020 2.714012 0.380910 -0.222580 0.131520 0.017030 19.044735 -14.963376 1.161919 52.926036 -17.212226 -15.603976 61.479811 39.029444 15.059516 2.495078 -1.650328 -0.009800 0.023620 -0.032760 -0.096100 
-1.131870 16.859820 -4.361410 -177.357955 51.193809 177.909866 -15.267579 13.303620 3.343084 16.505599 -3.360655 -7.139289 -17.769983 11.800613 22.014827 0.481463 6.932170 2.004488 0.212070 -0.049370 0.224460 18.060966 -10.688044 2.856446 0.344732 2.058907 -23.327744 0.320464 -2.721222 13.151811 0.036038 -1.700411 3.663570 -0.072320 -0.166610 0.005490 -2.577894 -1.766007 -7.584517 -0.572496 -4.725082 15.691987 2.358487 -3.458405 -1.138718 3.370753 3.313046 -6.451863 9.416664 -16.249048 79.064133 4.159730 -18.452170 11.725270 -22.098730 14.073487 -3.459536 -60.948951 9.485345 -15.460275 -17.313001 -21.073361 0.225640 -3.511498 2.722215 0.388850 -0.236070 0.149370 0.022500 19.365842 -14.111625 1.298171 52.520363 -16.696454 -15.410546 61.987949 40.671107 16.183955 2.500257 -1.663785 0.002220 0.023870 -0.046180 -0.093310 
-1.127420 16.839630 -4.353740 -177.432470 53.824871 177.516893 -15.278754 13.275475 3.385556 16.386138 -3.298732 -6.593663 -18.659239 12.223655 22.204127 0.541786 7.086841 1.955143 0.230360 -0.027660 0.248850 18.055140 -10.663451 2.869533 0.773487 2.222696 -23.379840 0.499764 -2.812384 13.974145 0.018127 -1.726369 3.649211 -0.069530 -0.197120 0.004290 -2.576581 -1.761594 -7.601645 -0.528059 -4.649974 15.468120 2.656102 -3.430838 -0.915420 3.235496 3.127244 -6.987522 9.001843 -16.084003 79.588029 3.404590 -18.333120 11.601830 -21.719781 13.383529 -2.918831 -60.942616 10.009727 -15.599833 -18.147230 -21.343364 0.382555 -3.479708 2.732024 0.395590 -0.252580 0.169810 0.019670 19.129238 -13.162461 1.702499 52.567164 -16.499346 -15.344626 63.499037 41.753304 17.309017 2.510977 -1.682709 0.016900 0.015990 -0.063960 -0.097020 
-1.122770 16.829070 -4.346220 -177.446805 56.671259 177.074869 -15.287816 13.242002 3.456347 16.327855 -3.190656 -5.839101 -19.926130 12.636404 21.870803 0.604025 7.239088 1.907399 0.253700 -0.000670 0.273460 18.050582 -10.627928 2.885839 1.397542 2.432842 -23.368985 0.608577 -2.939061 15.262515 -0.008215 -1.784377 3.622348 -0.062050 -0.227080 0.002310 -2.600043 -1.776801 -7.642638 -0.279453 -4.760231 15.388915 2.655231 -3.591108 -0.787660 3.131242 2.618544 -7.473571 7.973250 -15.146640 81.108097 2.726390 -17.832770 11.567360 -21.845221 12.551823 -2.360407 -60.687142 10.952029 -15.996277 -18.545503 -22.088106 0.488413 -3.438547 2.742769 0.407650 -0.271250 0.192440 0.019530 19.307228 -11.940012 2.007682 52.163269 -15.947150 -15.018765 64.563229 42.367725 18.138719 2.523427 -1.694733 0.029520 0.011430 -0.081270 -0.101640 
-1.111550 16.815070 -4.342600 -177.473899 59.414868 176.639054 -15.300790 13.231590 3.496289 16.336766 -3.042504 -4.989182 -20.796652 13.017633 21.753527 0.653307 7.384422 1.861995 0.270650 0.018580 0.292140 18.043375 -10.594120 2.904246 2.039955 2.597009 -23.095151 0.339410 -2.907695 15.851844 -0.028043 -1.802459 3.611606 -0.055500 -0.250720 -0.001670 -2.616278 -1.809958 -7.668747 -0.063175 -4.862173 15.151400 2.728884 -3.736984 -0.590050 3.004628 2.013183 -7.899319 6.558542 -13.925093 82.624553 2.093180 -17.331630 11.414620 -21.830564 11.898811 -1.826376 -60.664364 11.890906 -16.410578 -18.869717 -22.883165 0.585724 -3.403000 2.745482 0.422050 -0.288810 0.210590 0.017500 19.408342 -10.814217 2.264141 51.642268 -15.334699 -14.655227 65.025396 42.815100 18.701459 2.533104 -1.696275 0.035500 0.012460 -0.091080 -0.106670 
-1.100690 16.796130 -4.340510 -177.164686 61.527974 176.539128 -15.321043 13.219845 3.520028 16.617022 -2.986236 -4.373832 -21.423294 13.407924 21.918697 0.690134 7.551386 1.807235 0.277950 0.024310 0.308240 18.035356 -10.538908 2.917100 2.703779 2.723784 -22.674037 0.095937 -2.841049 15.957880 -0.039818 -1.802205 3.609030 -0.052100 -0.266690 -0.004670 -2.611899 -1.872600 -7.683631 0.190788 -4.995560 14.746988 2.999242 -3.886982 -0.224617 2.960681 1.643597 -8.296961 5.609157 -13.195650 83.566152 1.282300 -16.921350 11.358710 -21.615723 11.310984 -1.385593 -60.987015 12.386787 -16.637982 -19.177584 -23.254038 0.637151 -3.387011 2.738754 0.433010 -0.298420 0.221080 0.011850 19.218725 -9.937513 2.547801 51.279009 -14.874902 -14.365464 65.755249 43.217413 19.306161 2.537212 -1.698488 0.034730 0.015830 -0.093960 -0.114090 
-1.092720 16.776550 -4.338100 -177.018868 63.062510 176.385154 -15.341564 13.207761 3.515192 16.800421 -2.966407 -3.920762 -21.688198 13.719280 22.278320 0.721721 7.685517 1.766204 0.273720 0.012120 0.320930 18.027059 -10.503430 2.921463 3.070040 2.765594 -22.278329 0.026704 -2.779305 15.583105 -0.040283 -1.788554 3.611990 -0.059260 -0.275260 -0.002410 -2.596216 -1.897367 -7.668763 0.232984 -5.112926 14.110659 3.304651 -4.067225 0.183360 2.956493 1.620493 -8.701473 5.690623 -13.189739 83.861747 0.456060 -16.603080 11.913910 -21.309444 10.722178 -0.924355 -61.230369 12.686912 -16.751628 -19.582053 -23.756699 0.760342 -3.379728 2.743181 0.434410 -0.298280 0.223170 0.004270 18.914894 -9.325492 2.854549 51.250464 -14.554853 -14.059820 67.381939 44.108225 20.550342 2.546533 -1.714692 0.033760 0.009720 -0.094280 -0.120780 
-1.093860 16.761220 -4.335580 -176.455584 64.685659 176.580126 -15.361882 13.154955 3.554759 17.140070 -2.936739 -3.555965 -22.589358 13.980321 21.895964 0.754728 7.792123 1.728253 0.285310 0.025800 0.334520 18.022798 -10.453906 2.922842 3.708647 2.875402 -21.895792 -0.040641 -2.813236 16.126871 -0.056124 -1.841100 3.592225 -0.053150 -0.291640 -0.000210 -2.620721 -1.897069 -7.675500 0.688096 -5.170857 13.689820 3.468995 -4.132747 0.517339 3.048576 1.586333 -8.963095 5.844343 -13.171385 84.379361 -0.108800 -16.191700 12.105060 -21.315571 10.291003 -0.690247 -61.414853 12.681625 -16.748652 -19.585243 -24.270411 0.837239 -3.371059 2.751155 0.434570 -0.300270 0.230480 0.001080 18.711334 -8.869973 3.072112 51.149801 -14.144785 -13.739900 68.483681 45.073992 21.671856 2.549797 -1.732080 0.041190 0.001050 -0.101570 -0.126650 
-1.096050 16.748480 -4.334460 -176.019520 66.399177 176.699395 -15.385571 13.100411 3.576563 17.366019 -2.896183 -3.174906 -23.347683 14.268965 21.735056 0.790434 7.911253 1.691326 0.286640 0.024260 0.340950 18.017336 -10.411979 2.932489 4.484895 2.937640 -21.278907 -0.535090 -2.671707 15.928405 -0.064912 -1.840569 3.593241 -0.054860 -0.296500 0.002220 -2.635481 -1.868799 -7.673757 0.958550 -5.071502 13.208648 3.756557 -4.032472 0.738761 3.064144 1.499647 -9.250322 6.029313 -13.296095 85.168797 -0.408880 -16.103410 12.593420 -21.415167 9.926312 -0.457636 -61.698986 12.736701 -16.825404 -19.485119 -25.097436 0.931495 -3.363842 2.750913 0.437660 -0.300910 0.235390 -0.000560 18.748575 -8.344201 3.319327 50.796260 -13.929288 -13.490857 69.079560 46.165673 22.649658 2.556258 -1.738542 0.042620 -0.001110 -0.102900 -0.128930 
-1.097760 16.732270 -4.332570 -175.895431 67.970138 176.410199 -15.408469 13.069341 3.591205 17.451400 -2.852590 -2.729094 -23.950528 14.559272 21.753989 0.815476 8.030547 1.653160 0.293000 0.030100 0.349920 18.008117 -10.387331 2.923760 4.870618 2.973286 -20.935167 -0.689313 -2.682983 16.384569 -0.079863 -1.883264 3.574817 -0.049510 -0.300700 0.002840 -2.612963 -1.859376 -7.658424 0.919669 -4.900306 12.938339 4.126548 -3.868276 1.025867 3.075003 1.541955 -9.423110 6.456039 -13.641548 85.490580 -0.291730 -16.166400 12.276670 -21.421148 9.711403 -0.327462 -61.969206 12.533887 -16.800186 -19.420684 -25.964754 1.052902 -3.357982 2.746574 0.448010 -0.304820 0.242440 -0.003420 18.756650 -8.021833 3.469372 50.600361 -13.598294 -13.226339 69.956927 47.350463 23.830775 2.559341 -1.738284 0.040100 0.005120 -0.102320 -0.133510 
-1.103950 16.724510 -4.329880 -175.403009 69.712293 176.414663 -15.426789 13.038272 3.576917 17.448577 -2.816087 -2.414968 -24.149255 14.839285 22.194352 0.833236 8.137178 1.616215 0.301140 0.041380 0.352570 18.002815 -10.371297 2.948662 5.632633 2.955741 -20.076022 -1.142506 -2.530168 15.786151 -0.091710 -1.875600 3.579331 -0.040310 -0.299970 0.005140 -2.658462 -1.808611 -7.646652 1.300919 -4.617428 12.819445 4.237116 -3.546967 1.326131 3.111655 1.571677 -9.449709 6.821099 -13.893341 85.773341 0.205070 -16.313340 11.734360 -21.864253 9.497114 -0.344941 -61.741956 12.134036 -16.592955 -19.579550 -27.030355 1.273657 -3.352578 2.754289 0.455170 -0.306560 0.247920 -0.003440 19.105328 -7.721795 3.549666 50.326043 -13.213381 -12.944058 70.882449 48.695400 25.139307 2.562576 -1.738124 0.039400 0.012020 -0.100630 -0.134430 
-1.108390 16.716340 -4.329320 -174.870827 71.301267 176.571183 -15.451448 12.975459 3.590234 17.629960 -2.752626 -1.894545 -24.895544 15.070475 21.892772 0.856465 8.236396 1.583511 0.305200 0.052620 0.347620 17.997170 -10.340744 2.954316 6.271195 2.965000 -19.508496 -1.500179 -2.449215 15.698372 -0.104258 -1.895895 3.570131 -0.030410 -0.296800 0.007690 -2.688708 -1.745536 -7.636879 1.577639 -4.281251 12.649665 4.501571 -3.162483 1.653052 3.125639 1.654942 -9.390241 7.281622 -14.374085 85.716753 0.803260 -16.593200 11.032650 -22.120091 9.589019 -0.420265 -61.834731 11.604408 -16.390841 -20.232411 -28.546368 1.686641 -3.349568 2.766674 0.460020 -0.307020 0.252070 -0.004110 19.345151 -7.702353 3.532071 50.070595 -12.825800 -12.699062 71.247645 50.027992 26.209605 2.564202 -1.733358 0.038530 0.018990 -0.095360 -0.132860 
